<svg xmlns="http://www.w3.org/2000/svg" version="1.1" xmlns:xlink="http://www.w3.org/1999/xlink" xmlns:svgjs="http://svgjs.dev/svgjs" width="1500" height="1500" viewBox="0 0 1500 1500"><rect width="1500" height="1500" fill="#575c5f"></rect><g transform="matrix(0.6666666666666666,0,0,0.6666666666666666,249.39393939393938,459.5874232237671)"><svg viewBox="0 0 396 225" data-background-color="#575c5f" preserveAspectRatio="xMidYMid meet" height="852" width="1500" xmlns="http://www.w3.org/2000/svg" xmlns:xlink="http://www.w3.org/1999/xlink"><g id="tight-bounds" transform="matrix(1,0,0,1,0.2400000000000091,3.7598934885744058)"><svg viewBox="0 0 395.52 221.03309646485272" height="221.03309646485272" width="395.52"><g><svg viewBox="0 0 395.52000000000004 221.03309646485275" height="221.03309646485272" width="395.52"><g transform="matrix(1,0,0,1,0,112.63672776781188)"><svg viewBox="0 0 395.52000000000004 108.39636869704088" height="108.39636869704088" width="395.52000000000004"><g id="textblocktransform"><svg viewBox="0 0 395.52000000000004 108.39636869704088" height="108.39636869704088" width="395.52000000000004" id="textblock"><g><svg viewBox="0 0 395.52000000000004 72.90013240095337" height="72.90013240095337" width="395.52000000000004"><g transform="matrix(1,0,0,1,0,0)"><svg width="395.52000000000004" viewBox="-1.5951399999999998 -25.636879999999998 376.83149000000003 69.45556" height="72.90013240095337" data-palette-color="#dedad7"><path d="M16.735-24.202v0c-0.661 3.328-1.283 6.46-1.866 9.397-0.583 2.936-1.107 5.52-1.57 7.753-0.459 2.24-0.832 4.001-1.121 5.282v0l-2.142 11.555 3.454 1.756-1.06 1.696c-1.072-0.281-2.143-0.538-3.212-0.77-1.07-0.226-2.265-0.47-3.586-0.733v0c-1.282-0.255-2.488-0.477-3.619-0.668-1.125-0.189-2.168-0.363-3.129-0.519v0l-0.479-2.002 4.51-0.175c0.524-2.125 1.064-4.468 1.621-7.029 0.564-2.566 1.104-5.15 1.621-7.752v0c0.583-2.936 1.084-5.681 1.503-8.235 0.425-2.553 0.772-5.036 1.041-7.45v0l-3.726-1.413-0.138-2.128c1.654 0.295 3.501 0.559 5.541 0.795 2.048 0.23 4.167 0.444 6.357 0.64zM21.998-7.221v0c2.04 0.405 3.521 1.437 4.442 3.095 0.921 1.658 1.225 3.618 0.912 5.88v0c-0.053 0.608-0.222 1.543-0.506 2.805-0.285 1.262-0.581 2.634-0.889 4.116-0.314 1.48-0.596 2.848-0.845 4.104v0l3.454 1.756-1.1 1.688c-1.759-0.451-3.894-0.926-6.405-1.425v0c-1.249-0.248-2.387-0.457-3.413-0.627-1.033-0.171-1.981-0.326-2.845-0.463v0l-0.322-1.97 3.814-0.313c0.289-1.112 0.526-2.05 0.712-2.815 0.187-0.772 0.364-1.542 0.53-2.311 0.174-0.774 0.349-1.691 0.526-2.751v0c0.426-2.315 0.335-3.978-0.273-4.989-0.601-1.01-1.677-1.669-3.227-1.976v0c-1.641 0.666-2.881 1.603-3.719 2.809-0.836 1.2-1.363 2.431-1.579 3.694v0l-1.353-2.532c0.602-1.831 1.521-3.396 2.757-4.693 1.236-1.297 2.664-2.224 4.283-2.779 1.611-0.55 3.293-0.651 5.046-0.303zM46.012-2.926v0c1.762 0.295 3.198 1.089 4.306 2.383 1.115 1.295 1.49 3.034 1.126 5.216v0c-0.238 1.427-0.464 2.616-0.678 3.568-0.208 0.959-0.4 1.805-0.576 2.539-0.17 0.735-0.322 1.501-0.455 2.297v0c-0.156 0.934-0.21 1.601-0.162 2 0.055 0.401 0.348 0.646 0.881 0.736v0c0.46 0.077 1.19-0.024 2.19-0.304v0l0.531 2.34c-1.329 0.63-2.588 1.125-3.777 1.488-1.183 0.363-2.389 0.442-3.618 0.237v0c-1.026-0.171-1.852-0.725-2.48-1.662-0.626-0.943-0.793-2.292-0.5-4.048v0c0.271-1.624 0.615-3.213 1.03-4.765 0.407-1.547 0.714-2.936 0.919-4.166v0c0.171-1.026 0.162-1.879-0.028-2.559-0.191-0.674-0.616-1.188-1.273-1.541v0c-1.536-0.189-3.043-0.15-4.521 0.116-1.478 0.267-3.007 0.66-4.588 1.18v0l-0.944-2.358c2.127-1.077 4.232-1.885 6.316-2.422 2.084-0.537 4.184-0.629 6.301-0.275zM48.239 5.466v0l-3.669 3.635c-0.757 0.042-1.433 0.099-2.026 0.168-0.586 0.071-1.122 0.12-1.606 0.147v0c-1.163 0.042-1.99 0.201-2.483 0.478-0.492 0.276-0.81 0.845-0.954 1.706v0c-0.117 0.697-0.024 1.274 0.279 1.729 0.295 0.462 0.758 0.745 1.389 0.851v0c0.763 0.127 1.793-0.069 3.089-0.589 1.296-0.513 2.449-1.247 3.46-2.2v0l0.607 2.19c-0.644 0.575-1.536 1.261-2.676 2.058-1.135 0.804-2.445 1.464-3.93 1.979-1.485 0.516-3.04 0.638-4.664 0.366v0c-0.829-0.138-1.593-0.496-2.294-1.073-0.708-0.578-1.243-1.357-1.607-2.337-0.363-0.98-0.434-2.134-0.212-3.462v0c0.232-1.387 0.837-2.401 1.816-3.043 0.971-0.635 2.223-1.048 3.756-1.237 1.531-0.183 3.2-0.28 5.006-0.289v0c1.23 0.003 2.384-0.068 3.462-0.212 1.079-0.144 2.164-0.432 3.257-0.865zM70.902-14.956v0c-0.16 0.927-0.306 1.883-0.44 2.867-0.134 0.984-0.266 1.959-0.398 2.923v0c-0.235 1.731-0.438 3.298-0.609 4.701-0.177 1.402-0.35 2.795-0.517 4.178-0.175 1.382-0.379 2.939-0.615 4.67v0c-0.095 0.7-0.23 1.691-0.404 2.973-0.174 1.282-0.359 2.639-0.554 4.072-0.195 1.433-0.366 2.766-0.513 3.998-0.155 1.237-0.273 2.156-0.355 2.757v0l-1.228 0.792c-0.423 0.387-0.945 0.817-1.568 1.29-0.629 0.473-1.264 0.955-1.902 1.447v0l-3.102-0.422c0.184-0.856 0.387-1.983 0.611-3.378 0.223-1.396 0.465-2.924 0.724-4.584 0.259-1.66 0.514-3.338 0.765-5.033 0.244-1.696 0.478-3.292 0.702-4.789 0.224-1.497 0.408-2.777 0.553-3.841v0c0.267-1.962 0.472-3.868 0.616-5.719 0.15-1.843 0.263-3.914 0.34-6.211v0l-3.906-1.187-0.164-2.212c0.573 0.044 1.353 0.117 2.342 0.218 0.982 0.1 2.064 0.186 3.245 0.259 1.174 0.072 2.326 0.135 3.456 0.187 1.13 0.053 2.103 0.067 2.921 0.044zM75.749 1.427v0c1.83 0.249 3.293 0.966 4.39 2.151 1.091 1.178 1.854 2.62 2.288 4.327 0.428 1.7 0.52 3.451 0.275 5.255v0c-0.258 1.896-0.866 3.67-1.824 5.323-0.951 1.647-2.218 2.931-3.804 3.853-1.579 0.922-3.451 1.236-5.618 0.942v0c-1.83-0.249-3.368-0.983-4.615-2.202-1.241-1.218-2.251-2.694-3.031-4.429v0l1.583-1.924c0.39 1.136 0.978 2.182 1.764 3.136 0.785 0.954 1.944 1.536 3.477 1.744v0c0.898 0.122 1.711-0.114 2.437-0.708 0.72-0.595 1.324-1.421 1.811-2.479 0.479-1.052 0.801-2.179 0.964-3.38v0c0.163-1.196 0.157-2.391-0.017-3.585-0.181-1.195-0.547-2.237-1.099-3.127-0.559-0.89-1.328-1.469-2.307-1.737v0c-1.06 0.024-2.099 0.67-3.119 1.938-1.02 1.267-1.696 3.12-2.028 5.557v0l-0.855-4.546c0.507-1.256 1.195-2.384 2.065-3.383 0.863-1 1.907-1.756 3.134-2.268 1.22-0.514 2.597-0.666 4.129-0.458zM96.757 3.872v0c1.67 0.179 3.176 0.712 4.515 1.599 1.34 0.888 2.358 2.119 3.054 3.696 0.69 1.576 0.915 3.484 0.675 5.724v0c-0.75 0.054-1.73 0.066-2.94 0.037-1.211-0.022-2.538-0.087-3.982-0.194-1.444-0.101-2.885-0.228-4.324-0.382v0c-1.067-0.114-1.984-0.229-2.749-0.344-0.765-0.115-1.279-0.204-1.54-0.266v0l0.257-2.406c0.365 0.039 0.921 0.099 1.67 0.179 0.756 0.081 1.603 0.155 2.541 0.221 0.939 0.06 1.856 0.105 2.752 0.133 0.889 0.028 1.64 0.025 2.254-0.01v0c0.042-0.706-0.074-1.436-0.35-2.189-0.275-0.753-0.737-1.42-1.385-1.999-0.642-0.578-1.517-0.927-2.624-1.045v0c-0.738 0.565-1.365 1.386-1.882 2.464-0.524 1.077-0.865 2.351-1.023 3.823v0c-0.321 3.003 0.069 5.284 1.169 6.843 1.101 1.553 2.573 2.427 4.416 2.624v0c1.869 0.2 3.913-0.259 6.131-1.376v0l0.857 2.425c-1.578 1.152-3.216 1.926-4.914 2.321-1.698 0.388-3.348 0.497-4.953 0.325v0c-1.876-0.201-3.579-0.795-5.109-1.783-1.536-0.996-2.707-2.365-3.514-4.107-0.813-1.743-1.088-3.834-0.827-6.274v0c0.264-2.473 0.996-4.483 2.194-6.031 1.191-1.542 2.643-2.644 4.356-3.305 1.707-0.662 3.465-0.897 5.275-0.703zM106.448 25.689v0c0.372-1.253 0.687-2.297 0.944-3.133 0.258-0.841 0.495-1.758 0.712-2.75v0l2.511 0.21 0.48 3.983c0.401 0.408 0.895 0.737 1.483 0.987 0.588 0.25 1.184 0.4 1.789 0.451v0c0.837 0.07 1.598-0.067 2.282-0.412 0.685-0.351 1.062-0.945 1.132-1.782v0c0.059-0.704-0.152-1.304-0.632-1.799-0.48-0.495-1.108-0.952-1.883-1.371-0.774-0.419-1.599-0.843-2.473-1.27-0.874-0.428-1.691-0.941-2.45-1.54-0.759-0.605-1.364-1.331-1.815-2.178-0.458-0.848-0.635-1.889-0.532-3.125v0c0.143-1.714 0.674-3.028 1.593-3.941 0.92-0.92 2.079-1.542 3.478-1.868 1.391-0.319 2.841-0.415 4.349-0.289v0c1.169 0.098 2.381 0.333 3.634 0.705 1.246 0.378 2.37 0.86 3.371 1.446v0c-0.371 1.153-0.7 2.173-0.988 3.058-0.295 0.885-0.561 1.756-0.8 2.613v0l-2.616-0.269-0.363-3.472c-0.537-0.854-1.494-1.339-2.869-1.454v0c-0.737-0.062-1.429 0.051-2.075 0.338-0.646 0.281-1.001 0.806-1.065 1.577v0c-0.062 0.737 0.158 1.355 0.658 1.852 0.494 0.496 1.155 0.946 1.985 1.349 0.822 0.41 1.705 0.848 2.65 1.315 0.938 0.466 1.808 1.017 2.611 1.653 0.809 0.643 1.446 1.432 1.91 2.367 0.458 0.928 0.629 2.08 0.514 3.455v0c-0.134 1.608-0.676 2.854-1.626 3.738-0.95 0.877-2.163 1.465-3.64 1.763-1.47 0.299-3.045 0.378-4.726 0.238v0c-1.269-0.106-2.547-0.346-3.833-0.722-1.28-0.374-2.513-0.949-3.7-1.723zM138.486-8.376v0c-0.182 3.388-0.352 6.577-0.513 9.567-0.16 2.989-0.311 5.621-0.453 7.897-0.136 2.283-0.255 4.079-0.359 5.388v0l-0.479 11.741 3.668 1.249-0.809 1.829c-1.102-0.126-2.198-0.228-3.288-0.307-1.091-0.072-2.309-0.144-3.654-0.215v0c-1.305-0.07-2.531-0.119-3.677-0.147-1.14-0.028-2.197-0.051-3.171-0.07v0l-0.759-1.913 4.44-0.814c0.217-2.178 0.419-4.574 0.606-7.188 0.194-2.62 0.362-5.255 0.503-7.904v0c0.16-2.989 0.266-5.777 0.319-8.365 0.059-2.587 0.049-5.095-0.028-7.523v0l-3.889-0.869-0.439-2.086c1.679 0.057 3.545 0.056 5.598-0.001 2.06-0.063 4.188-0.153 6.384-0.269zM146.107 7.685v0c2.077 0.111 3.689 0.922 4.837 2.433 1.147 1.51 1.727 3.407 1.738 5.691v0c0.034 0.609 0 1.559-0.103 2.848-0.102 1.29-0.201 2.69-0.295 4.201-0.101 1.51-0.186 2.904-0.254 4.182v0l3.668 1.248-0.849 1.827c-1.805-0.197-3.986-0.364-6.542-0.501v0c-1.272-0.068-2.427-0.113-3.468-0.135-1.047-0.023-2.007-0.041-2.881-0.055v0l-0.599-1.904 3.731-0.852c0.128-1.141 0.23-2.104 0.305-2.888 0.076-0.79 0.141-1.578 0.196-2.363 0.062-0.791 0.106-1.723 0.13-2.797v0c0.093-2.352-0.234-3.985-0.979-4.899-0.739-0.914-1.897-1.414-3.475-1.498v0c-1.53 0.893-2.624 1.996-3.282 3.309-0.658 1.307-1.004 2.6-1.039 3.88v0l-1.698-2.314c0.335-1.898 1.023-3.577 2.062-5.037 1.04-1.46 2.321-2.579 3.846-3.359 1.517-0.773 3.167-1.112 4.951-1.017zM170.488 8.526v0c1.786 0.041 3.32 0.624 4.601 1.747 1.288 1.123 1.906 2.791 1.855 5.004v0c-0.033 1.446-0.088 2.655-0.164 3.627-0.069 0.979-0.139 1.844-0.21 2.596-0.064 0.752-0.105 1.531-0.124 2.338v0c-0.022 0.946 0.019 1.614 0.123 2.003 0.111 0.389 0.436 0.59 0.977 0.603v0c0.467 0.011 1.175-0.193 2.124-0.611v0l0.859 2.24c-1.226 0.812-2.402 1.482-3.527 2.009-1.119 0.528-2.302 0.777-3.549 0.749v0c-1.04-0.024-1.937-0.455-2.69-1.293-0.754-0.844-1.11-2.156-1.07-3.936v0c0.038-1.646 0.152-3.267 0.343-4.863 0.183-1.59 0.29-3.007 0.318-4.254v0c0.024-1.04-0.107-1.883-0.392-2.53-0.285-0.64-0.778-1.088-1.479-1.344v0c-1.548 0.031-3.034 0.283-4.459 0.757-1.425 0.474-2.882 1.08-4.373 1.82v0l-1.27-2.2c1.952-1.369 3.921-2.467 5.908-3.295 1.986-0.828 4.053-1.217 6.199-1.167zM173.884 16.517v0l-3.116 4.119c-0.744 0.15-1.404 0.301-1.981 0.454-0.57 0.154-1.093 0.278-1.569 0.374v0c-1.145 0.207-1.942 0.482-2.39 0.825-0.448 0.343-0.682 0.951-0.702 1.824v0c-0.016 0.706 0.158 1.264 0.522 1.673 0.357 0.415 0.856 0.63 1.495 0.645v0c0.773 0.018 1.765-0.323 2.974-1.022 1.21-0.692 2.247-1.582 3.113-2.669v0l0.912 2.082c-0.555 0.661-1.341 1.466-2.356 2.416-1.009 0.957-2.212 1.796-3.609 2.517-1.397 0.721-2.919 1.063-4.565 1.025v0c-0.84-0.019-1.648-0.265-2.424-0.736-0.783-0.472-1.423-1.167-1.922-2.085-0.499-0.918-0.733-2.051-0.702-3.397v0c0.032-1.406 0.488-2.496 1.366-3.269 0.871-0.767 2.052-1.353 3.541-1.759 1.49-0.399 3.128-0.731 4.915-0.997v0c1.218-0.172 2.35-0.406 3.397-0.702 1.047-0.296 2.081-0.735 3.101-1.318zM203.234 8.603v0c0.089 1.205 0.186 2.297 0.291 3.276 0.098 0.972 0.17 1.794 0.217 2.466v0c-0.013 1.074-0.01 2.131 0.009 3.17 0.02 1.046 0.04 2.156 0.062 3.33v0c0.021 1.14 0.043 2.306 0.066 3.499 0.022 1.193 0.064 2.523 0.125 3.989 0.061 1.459 0.126 3.172 0.196 5.137 0.07 1.966 0.147 4.291 0.231 6.977v0l5.072 1.115-0.673 1.983c-0.874-0.05-1.985-0.079-3.333-0.088-1.34-0.008-2.75 0.002-4.23 0.029v0c-1.646 0.031-2.993 0.073-4.038 0.126-1.039 0.053-2.045 0.122-3.017 0.207v0l-0.797-1.956 3.971-1.084c0.054-0.668 0.077-1.608 0.067-2.822-0.003-1.207-0.01-2.51-0.023-3.91-0.006-1.393-0.02-2.687-0.043-3.88-0.022-1.193-0.039-2.093-0.051-2.7v0c-0.029-1.546-0.067-3.023-0.113-4.428-0.04-1.413-0.102-2.959-0.187-4.638-0.078-1.679-0.209-3.693-0.393-6.043v0l-4.243-0.681-0.599-2.049c0.573-0.044 1.345-0.092 2.318-0.144 0.979-0.058 2.021-0.121 3.127-0.188 1.105-0.074 2.187-0.171 3.245-0.291 1.058-0.12 1.972-0.254 2.743-0.402zM210.592 8.416v0c1.913-0.036 3.526 0.447 4.838 1.449 1.319 0.995 2.31 2.304 2.974 3.925 0.67 1.614 1.023 3.331 1.057 5.151v0c0.036 1.913-0.3 3.76-1.007 5.54-0.707 1.774-1.79 3.237-3.248 4.392-1.452 1.154-3.304 1.752-5.558 1.794v0c-1.846 0.035-3.479-0.455-4.898-1.468-1.413-1.014-2.637-2.318-3.674-3.912v0l1.02-2.14c0.52 1.064 1.351 2.005 2.494 2.824 1.142 0.819 2.37 1.216 3.683 1.191v0c1.006-0.019 1.84-0.378 2.5-1.077 0.66-0.699 1.147-1.608 1.459-2.728 0.319-1.113 0.467-2.276 0.445-3.488v0c-0.023-1.206-0.215-2.386-0.577-3.54-0.355-1.154-0.893-2.127-1.615-2.921-0.722-0.793-1.637-1.246-2.746-1.358v0c-0.471 0.109-1.027 0.523-1.667 1.241-0.647 0.719-1.194 1.603-1.64 2.651-0.454 1.049-0.67 2.146-0.649 3.293v0l-1.473-3.353c0.27-1.619 0.824-2.973 1.664-4.062 0.84-1.096 1.841-1.931 3.004-2.507 1.163-0.575 2.367-0.875 3.614-0.897zM231.657 7.749v0c0.078 0.77 0.175 1.673 0.293 2.709 0.118 1.042 0.231 1.988 0.339 2.837 0.109 0.856 0.17 1.433 0.185 1.733v0l0.908 11.409 5.046 1.015-0.658 1.904c-0.574-0.005-1.331 0.005-2.271 0.031-0.94 0.033-1.916 0.064-2.929 0.094-1.006 0.036-1.912 0.073-2.718 0.112v0c-1.039 0.051-2.163 0.122-3.373 0.215-1.204 0.092-2.307 0.18-3.312 0.262v0l-0.85-1.83 4.024-1.248c-0.074-1.512-0.14-2.863-0.198-4.055-0.058-1.192-0.122-2.494-0.191-3.906v0c-0.038-0.772-0.079-1.485-0.125-2.136-0.052-0.658-0.115-1.396-0.188-2.214-0.074-0.824-0.19-1.836-0.349-3.036v0l-3.453-0.392-0.802-2.073c0.771-0.071 1.8-0.171 3.088-0.302 1.289-0.13 2.619-0.298 3.991-0.505 1.365-0.2 2.546-0.408 3.543-0.624zM238.404 7.319v0c0.939-0.046 1.82 0.088 2.643 0.402 0.823 0.314 1.623 0.838 2.4 1.574v0c-0.151 1.015-0.291 1.896-0.421 2.644-0.137 0.748-0.294 1.486-0.473 2.216-0.184 0.737-0.401 1.632-0.649 2.685v0l-2.827 0.138c-0.294-1.234-0.69-2.299-1.188-3.196-0.498-0.903-1.141-1.503-1.93-1.798v0c-0.813 0.574-1.563 1.612-2.25 3.114-0.681 1.495-0.963 3.451-0.845 5.868v0l-2.11-2.83c0.181-1.891 0.619-3.645 1.314-5.261 0.695-1.616 1.579-2.927 2.651-3.934 1.078-1.014 2.307-1.555 3.685-1.622zM257.061 6.127v0c2.479-0.19 4.586 0.17 6.321 1.08 1.742 0.916 3.086 2.181 4.031 3.793 0.953 1.612 1.503 3.388 1.652 5.33v0c0.152 1.981-0.125 3.864-0.831 5.65-0.705 1.792-1.856 3.271-3.451 4.436-1.596 1.165-3.65 1.844-6.162 2.037v0c-2.519 0.193-4.673-0.17-6.462-1.09-1.789-0.926-3.186-2.226-4.191-3.901-1.005-1.681-1.583-3.509-1.734-5.483v0c-0.149-1.941 0.142-3.775 0.872-5.503 0.724-1.72 1.911-3.159 3.561-4.315 1.643-1.156 3.774-1.834 6.394-2.034zM253.193 16.382v0c0.128 1.675 0.443 3.252 0.944 4.732 0.501 1.479 1.173 2.658 2.016 3.536 0.843 0.878 1.799 1.276 2.87 1.195v0c1.276-0.098 2.17-0.865 2.682-2.302 0.512-1.437 0.688-3.195 0.528-5.276v0c-0.128-1.675-0.442-3.242-0.942-4.702-0.5-1.466-1.162-2.646-1.986-3.538-0.831-0.899-1.798-1.306-2.902-1.222v0c-1.276 0.098-2.17 0.865-2.682 2.301-0.511 1.443-0.687 3.202-0.528 5.276zM277.496 17v0l2.471 0.349c-0.626 1.421-0.904 2.463-0.833 3.126v0c0.097 0.908 0.64 1.41 1.63 1.506 0.989 0.096 2.157 0.105 3.502 0.028v0c1.041-0.044 2.123-0.049 3.247-0.015 1.117 0.035 2.176 0.227 3.179 0.576 0.996 0.35 1.84 0.967 2.531 1.851 0.685 0.892 1.117 2.174 1.296 3.844v0c0.175 1.637-0.104 3.229-0.838 4.776-0.726 1.553-1.962 2.878-3.708 3.977-1.74 1.098-4.012 1.796-6.816 2.095v0c-2.141 0.229-3.965 0.102-5.472-0.381-1.506-0.483-2.683-1.202-3.529-2.157-0.846-0.956-1.332-2.02-1.457-3.193v0c-0.156-1.465 0.251-2.953 1.222-4.465 0.972-1.505 2.554-2.764 4.746-3.776v0l1.014 0.455c-0.584 0.874-0.992 1.728-1.224 2.565-0.233 0.836-0.308 1.639-0.226 2.407v0c0.16 1.498 0.905 2.702 2.237 3.613 1.33 0.904 3.082 1.24 5.256 1.008v0c1.405-0.15 2.624-0.609 3.655-1.376 1.03-0.774 1.467-1.893 1.311-3.358v0c-0.115-1.074-0.828-1.819-2.14-2.236-1.312-0.416-3.539-0.457-6.681-0.121v0c-2.168 0.232-3.999 0.005-5.493-0.681-1.495-0.685-2.346-1.999-2.553-3.941v0c0.898-1.444 1.6-2.631 2.104-3.563 0.51-0.933 1.034-1.904 1.569-2.913zM279.049 6.395v0c-0.62 0.536-1.004 1.304-1.152 2.305-0.142 0.994-0.17 1.892-0.084 2.694v0c0.093 0.868 0.388 1.749 0.885 2.641 0.504 0.891 1.138 1.618 1.902 2.18 0.771 0.561 1.623 0.792 2.558 0.693v0c0.541-0.333 0.939-0.969 1.194-1.908 0.255-0.939 0.322-1.975 0.201-3.109v0c-0.093-0.868-0.424-1.738-0.992-2.609-0.562-0.872-1.246-1.593-2.052-2.165-0.805-0.571-1.625-0.812-2.46-0.722zM280.176 4.142v0c2.307-0.246 4.208-0.087 5.703 0.477 1.502 0.57 2.647 1.397 3.432 2.48 0.793 1.082 1.258 2.273 1.398 3.572v0c0.15 1.405-0.079 2.741-0.689 4.005-0.609 1.265-1.608 2.334-2.996 3.207-1.394 0.88-3.195 1.437-5.403 1.673v0c-1.936 0.207-3.636 0.04-5.102-0.501-1.458-0.535-2.616-1.33-3.473-2.385-0.858-1.062-1.359-2.275-1.505-3.64v0c-0.15-1.405 0.073-2.74 0.668-4.004 0.589-1.263 1.547-2.338 2.874-3.224 1.327-0.886 3.024-1.439 5.093-1.66zM294.905 2.971v0c0.089 0.835 0.17 1.748 0.242 2.74 0.072 0.991 0.133 1.719 0.183 2.183v0c-1.712-0.521-3.197-0.902-4.457-1.143-1.259-0.234-2.478-0.355-3.659-0.363v0l-2.56-1.658c1.053-0.247 2.277-0.495 3.671-0.744 1.395-0.25 2.699-0.466 3.913-0.649 1.214-0.183 2.103-0.305 2.667-0.366zM305.144 0.889v0c1.666-0.22 3.254-0.057 4.766 0.49 1.511 0.547 2.791 1.504 3.839 2.871 1.042 1.369 1.71 3.17 2.006 5.404v0c-0.716 0.229-1.666 0.472-2.849 0.73-1.182 0.264-2.487 0.514-3.916 0.749-1.427 0.242-2.858 0.458-4.292 0.648v0c-1.064 0.141-1.982 0.245-2.753 0.314-0.771 0.068-1.291 0.103-1.559 0.105v0l-0.317-2.399c0.363-0.048 0.919-0.121 1.665-0.22 0.753-0.1 1.594-0.228 2.522-0.384 0.927-0.163 1.828-0.336 2.705-0.519 0.87-0.182 1.6-0.363 2.188-0.541v0c-0.126-0.696-0.411-1.378-0.856-2.046-0.445-0.667-1.05-1.206-1.817-1.616-0.76-0.411-1.692-0.543-2.796-0.397v0c-0.584 0.723-1 1.669-1.249 2.838-0.256 1.17-0.286 2.489-0.092 3.957v0c0.396 2.994 1.312 5.119 2.749 6.374 1.436 1.249 3.073 1.752 4.91 1.51v0c1.864-0.246 3.742-1.174 5.634-2.782v0l1.404 2.154c-1.262 1.492-2.672 2.629-4.229 3.414-1.558 0.778-3.137 1.272-4.736 1.483v0c-1.87 0.247-3.666 0.071-5.386-0.529-1.728-0.605-3.188-1.66-4.382-3.163-1.201-1.502-1.962-3.47-2.283-5.901v0c-0.326-2.465-0.089-4.591 0.71-6.378 0.794-1.779 1.945-3.192 3.454-4.24 1.503-1.046 3.156-1.688 4.96-1.926zM335.256-3.638v0c1.888-0.309 3.554 0.152 4.999 1.382 1.444 1.23 2.416 2.959 2.914 5.188v0c0.131 0.593 0.284 1.531 0.46 2.813 0.176 1.282 0.379 2.671 0.61 4.166 0.224 1.497 0.44 2.877 0.646 4.14v0l3.9 0.426-0.488 1.975c-0.873 0.075-1.86 0.192-2.962 0.352-1.094 0.165-2.171 0.335-3.23 0.508v0c-1.296 0.212-2.455 0.418-3.476 0.619-1.028 0.202-1.97 0.389-2.826 0.563v0l-0.943-1.741 3.462-1.63c-0.152-1.137-0.275-2.096-0.369-2.878-0.095-0.788-0.199-1.572-0.313-2.35-0.108-0.786-0.265-1.706-0.471-2.76v0c-0.364-2.021-0.971-3.438-1.82-4.253-0.849-0.814-1.979-1.257-3.389-1.33v0c-1.297 1.198-2.164 2.549-2.6 4.052-0.438 1.497-0.537 2.874-0.298 4.132v0l-2.203-1.889c-0.072-1.927 0.224-3.711 0.888-5.354 0.67-1.643 1.65-3.005 2.939-4.087 1.29-1.075 2.814-1.757 4.57-2.044zM327.104-2.559v0c0.178 1.092 0.323 1.977 0.433 2.655 0.112 0.684 0.213 1.367 0.305 2.048 0.098 0.68 0.206 1.591 0.325 2.733v0l2.092 11.564 3.801 0.443-0.34 1.95c-1.142 0.119-2.212 0.25-3.208 0.393-0.996 0.149-2.092 0.322-3.29 0.517v0c-1.29 0.211-2.405 0.41-3.347 0.598-0.942 0.188-1.891 0.377-2.846 0.566v0l-1.101-1.715 3.561-1.646c-0.174-1.066-0.336-2.326-0.486-3.781-0.15-1.455-0.331-2.83-0.543-4.126v0c-0.157-0.961-0.298-1.762-0.423-2.404-0.12-0.649-0.274-1.323-0.462-2.022-0.183-0.706-0.435-1.628-0.756-2.764v0l-4.033-0.313-0.91-1.787c1.943-0.426 3.772-0.87 5.487-1.332 1.707-0.468 3.62-0.994 5.741-1.577zM374.127-10.305v0l1.109 1.727-3.617 1.7c-1.256 5.22-2.475 10.32-3.657 15.301-1.182 4.981-1.998 9.78-2.45 14.398v0l4.855 0.622-0.399 2.089c-0.804 0.092-1.788 0.238-2.951 0.436-1.157 0.197-2.331 0.414-3.521 0.651v0c-0.791 0.158-1.689 0.344-2.693 0.558-0.996 0.219-1.936 0.434-2.818 0.644-0.889 0.211-1.592 0.386-2.109 0.522v0l-1.189-1.822 5.471-2.734c0.658-1.505 1.346-3.426 2.061-5.764 0.718-2.332 1.416-4.878 2.097-7.638 0.686-2.761 1.288-5.553 1.806-8.375 0.516-2.829 0.898-5.502 1.143-8.019v0l-4.042-0.173 0.323-2.012c1.026-0.171 1.946-0.331 2.759-0.479 0.808-0.141 1.64-0.297 2.497-0.467v0c0.889-0.177 1.776-0.365 2.662-0.562 0.893-0.192 1.781-0.393 2.663-0.603zM359.947-7.425v0l1.266 1.695-3.363 1.701c0.635 1.138 1.208 2.138 1.721 3.002 0.517 0.855 1.033 1.667 1.546 2.434 0.515 0.774 1.113 1.624 1.793 2.548 0.682 0.931 1.51 2.034 2.486 3.308v0c0.132 0.32 0.16 0.889 0.085 1.706-0.08 0.825-0.226 1.694-0.438 2.607-0.211 0.919-0.463 1.717-0.757 2.394-0.294 0.671-0.572 1.032-0.834 1.084v0c-1.329-1.856-2.533-3.516-3.614-4.979-1.081-1.464-2.114-2.862-3.1-4.195-0.985-1.326-2.005-2.656-3.06-3.988-1.054-1.333-2.204-2.8-3.447-4.401v0l-3.954-0.241 0.323-2.012c0.994-0.164 1.997-0.331 3.01-0.498 1.007-0.167 2.154-0.379 3.442-0.636v0c1.386-0.277 2.667-0.549 3.845-0.818 1.183-0.27 2.2-0.507 3.05-0.711z" opacity="1" transform="matrix(1,0,0,1,0,0)" fill="#dedad7" class="wordmark-text-0" data-fill-palette-color="primary" id="text-0"></path></svg></g></svg></g><g transform="matrix(1,0,0,1,118.31980800000001,94.1019277548083)"><svg viewBox="0 0 158.88038400000002 14.29444094223258" height="14.29444094223258" width="158.88038400000002"><g transform="matrix(1,0,0,1,0,0)"><svg width="158.88038400000002" viewBox="3.85 -36.055802948608 511.85 46.055802948608" height="14.29444094223258" data-palette-color="#dedad7"><path d="M3.85 0L3.85-36 7.6-36 7.6-21.6Q8.8-23.4 10.85-24.38 12.9-25.35 15.45-25.35L15.45-25.35Q18.2-25.35 20.35-24.1 22.5-22.85 23.73-20.4 24.95-17.95 24.95-14.3L24.95-14.3 24.95 0 20.95 0 20.95-13.85Q20.95-17.75 19.3-19.83 17.65-21.9 14.5-21.9L14.5-21.9Q11.25-21.9 9.43-19.7 7.6-17.5 7.6-13.3L7.6-13.3 7.6 0 3.85 0ZM32.95 0L32.95-25 36.65-25 36.65 0 32.95 0ZM34.85-30L34.85-30Q33.7-30 32.95-30.75 32.2-31.5 32.2-32.6L32.2-32.6Q32.2-33.75 32.95-34.5 33.7-35.25 34.85-35.25L34.85-35.25Q35.9-35.25 36.67-34.5 37.45-33.75 37.45-32.6L37.45-32.6Q37.45-31.5 36.67-30.75 35.9-30 34.85-30ZM64.05-20.35L64.3-25 67.75-25 67.75-4.6Q67.75 0 65.7 3.28 63.65 6.55 59.75 8.28 55.85 10 50.25 10L50.25 10 49.65 6.55Q56.7 6.45 60.35 3.63 64 0.8 64-4.6L64-4.6 64-5.15 64.4-5.05Q63.25-2.85 60.95-1.28 58.65 0.3 55 0.35L55 0.35Q51.55 0.35 48.97-1.23 46.4-2.8 44.97-5.7 43.55-8.6 43.55-12.5L43.55-12.5Q43.55-16.4 44.97-19.28 46.4-22.15 48.97-23.75 51.55-25.35 55-25.35L55-25.35Q57.25-25.35 59-24.68 60.75-24 62-22.88 63.25-21.75 64.05-20.35L64.05-20.35ZM47.6-12.5L47.6-12.5Q47.6-8.2 49.82-5.68 52.05-3.15 55.85-3.15L55.85-3.15Q58.15-3.15 60-4.25 61.85-5.35 62.92-7.45 64-9.55 64-12.5L64-12.5Q64-15.45 62.92-17.53 61.85-19.6 60-20.73 58.15-21.85 55.85-21.85L55.85-21.85Q52.1-21.85 49.85-19.3 47.6-16.75 47.6-12.5ZM75.39 0L75.39-36 79.14-36 79.14-21.6Q80.34-23.4 82.39-24.38 84.44-25.35 86.99-25.35L86.99-25.35Q89.74-25.35 91.89-24.1 94.04-22.85 95.27-20.4 96.49-17.95 96.49-14.3L96.49-14.3 96.49 0 92.49 0 92.49-13.85Q92.49-17.75 90.84-19.83 89.19-21.9 86.04-21.9L86.04-21.9Q82.79-21.9 80.97-19.7 79.14-17.5 79.14-13.3L79.14-13.3 79.14 0 75.39 0ZM102.19-6.45L105.79-7.65Q106.09-6.15 106.89-5.18 107.69-4.2 108.97-3.7 110.24-3.2 111.94-3.2L111.94-3.2Q114.59-3.2 115.97-4.23 117.34-5.25 117.34-6.8L117.34-6.8Q117.34-8.1 116.52-8.9 115.69-9.7 114.34-10.23 112.99-10.75 111.34-11.15L111.34-11.15Q110.04-11.45 108.54-11.88 107.04-12.3 105.69-13.05 104.34-13.8 103.49-15 102.64-16.2 102.64-18.15L102.64-18.15Q102.64-20.3 103.82-21.93 104.99-23.55 107.07-24.45 109.14-25.35 111.84-25.35L111.84-25.35Q114.94-25.35 117.37-24 119.79-22.65 120.74-19.8L120.74-19.8 117.24-18.6Q116.89-19.9 115.97-20.6 115.04-21.3 113.92-21.55 112.79-21.8 111.69-21.8L111.69-21.8Q109.44-21.8 108.07-20.93 106.69-20.05 106.69-18.3L106.69-18.3Q106.69-17.35 107.14-16.73 107.59-16.1 108.39-15.7 109.19-15.3 110.29-15.03 111.39-14.75 112.69-14.4L112.69-14.4Q114.14-14.05 115.64-13.53 117.14-13 118.44-12.18 119.74-11.35 120.57-10.08 121.39-8.8 121.39-6.9L121.39-6.9Q121.39-4.7 120.19-3.08 118.99-1.45 116.87-0.55 114.74 0.35 111.94 0.35L111.94 0.35Q108.09 0.35 105.57-1.38 103.04-3.1 102.19-6.45L102.19-6.45ZM138.14 0.35L138.14 0.35Q134.49 0.35 131.74-1.25 128.99-2.85 127.46-5.73 125.94-8.6 125.94-12.4L125.94-12.4Q125.94-16.25 127.46-19.18 128.99-22.1 131.74-23.73 134.49-25.35 138.14-25.35L138.14-25.35Q141.99-25.35 144.89-23.58 147.79-21.8 149.09-18.65L149.09-18.65 145.64-17.45Q144.89-19.45 142.91-20.63 140.94-21.8 138.34-21.8L138.34-21.8Q135.79-21.8 133.91-20.65 132.04-19.5 131.01-17.4 129.99-15.3 129.99-12.45L129.99-12.45Q129.99-8.25 132.24-5.73 134.49-3.2 138.24-3.2L138.24-3.2Q140.79-3.2 142.79-4.35 144.79-5.5 145.74-7.45L145.74-7.45 149.14-6.25Q147.79-3.15 144.89-1.4 141.99 0.35 138.14 0.35ZM155.29 0L155.29-36 159.04-36 159.04-21.6Q160.24-23.4 162.29-24.38 164.34-25.35 166.89-25.35L166.89-25.35Q169.64-25.35 171.79-24.1 173.94-22.85 175.16-20.4 176.39-17.95 176.39-14.3L176.39-14.3 176.39 0 172.39 0 172.39-13.85Q172.39-17.75 170.74-19.83 169.09-21.9 165.94-21.9L165.94-21.9Q162.69-21.9 160.86-19.7 159.04-17.5 159.04-13.3L159.04-13.3 159.04 0 155.29 0ZM194.43 0.35L194.43 0.35Q190.88 0.35 188.08-1.2 185.28-2.75 183.68-5.63 182.08-8.5 182.08-12.45L182.08-12.45Q182.08-16.45 183.71-19.35 185.33-22.25 188.16-23.8 190.98-25.35 194.53-25.35L194.53-25.35Q198.08-25.35 200.91-23.8 203.73-22.25 205.36-19.38 206.98-16.5 206.98-12.55L206.98-12.55Q206.98-8.55 205.33-5.65 203.68-2.75 200.83-1.2 197.98 0.35 194.43 0.35ZM194.38-3.2L194.38-3.2Q196.58-3.2 198.53-4.17 200.48-5.15 201.71-7.23 202.93-9.3 202.93-12.5L202.93-12.5Q202.93-15.75 201.73-17.8 200.53-19.85 198.61-20.83 196.68-21.8 194.48-21.8L194.48-21.8Q192.28-21.8 190.38-20.83 188.48-19.85 187.31-17.78 186.13-15.7 186.13-12.5L186.13-12.5Q186.13-9.25 187.28-7.2 188.43-5.15 190.31-4.17 192.18-3.2 194.38-3.2ZM223.93 0.35L223.93 0.35Q220.38 0.35 217.58-1.2 214.78-2.75 213.18-5.63 211.58-8.5 211.58-12.45L211.58-12.45Q211.58-16.45 213.21-19.35 214.83-22.25 217.66-23.8 220.48-25.35 224.03-25.35L224.03-25.35Q227.58-25.35 230.41-23.8 233.23-22.25 234.86-19.38 236.48-16.5 236.48-12.55L236.48-12.55Q236.48-8.55 234.83-5.65 233.18-2.75 230.33-1.2 227.48 0.35 223.93 0.35ZM223.88-3.2L223.88-3.2Q226.08-3.2 228.03-4.17 229.98-5.15 231.21-7.23 232.43-9.3 232.43-12.5L232.43-12.5Q232.43-15.75 231.23-17.8 230.03-19.85 228.11-20.83 226.18-21.8 223.98-21.8L223.98-21.8Q221.78-21.8 219.88-20.83 217.98-19.85 216.81-17.78 215.63-15.7 215.63-12.5L215.63-12.5Q215.63-9.25 216.78-7.2 217.93-5.15 219.81-4.17 221.68-3.2 223.88-3.2ZM242.63 0L242.63-36 246.38-36 246.38 0 242.63 0ZM269.37-25L269.37-27.95Q269.37-30.7 270.27-32.6 271.17-34.5 273.15-35.38 275.12-36.25 278.42-36L278.42-36 278.42-32.65Q275.42-32.9 274.27-31.68 273.12-30.45 273.12-27.95L273.12-27.95 273.12-25 278.62-25 278.62-21.5 273.12-21.5 273.12 0 269.37 0 269.37-21.5 265.87-21.5 265.87-25 269.37-25ZM284.22 0L284.22-25 287.67-25 287.87-21.35Q288.87-22.7 290.3-23.65 291.72-24.6 293.45-24.98 295.17-25.35 297.12-25L297.12-25 297.12-21.25Q295.02-21.65 293.35-21.25 291.67-20.85 290.47-19.75 289.27-18.65 288.62-16.98 287.97-15.3 287.97-13.1L287.97-13.1 287.97 0 284.22 0ZM312.22 0.35L312.22 0.35Q308.72 0.35 305.99-1.35 303.27-3.05 301.72-6 300.17-8.95 300.17-12.75L300.17-12.75Q300.17-16.4 301.72-19.25 303.27-22.1 305.97-23.73 308.67-25.35 312.12-25.35L312.12-25.35Q315.52-25.35 318.19-23.85 320.87-22.35 322.37-19.7 323.87-17.05 323.77-13.65L323.77-13.65Q323.77-13.1 323.72-12.5 323.67-11.9 323.62-11.2L323.62-11.2 304.27-11.2Q304.37-8.85 305.42-7.05 306.47-5.25 308.19-4.23 309.92-3.2 312.12-3.2L312.12-3.2Q315.02-3.2 317.04-4.3 319.07-5.4 319.97-7.45L319.97-7.45 323.22-6.15Q321.72-3 318.87-1.33 316.02 0.35 312.22 0.35ZM304.32-14.45L319.67-14.45Q319.72-16.6 318.74-18.25 317.77-19.9 316.02-20.85 314.27-21.8 311.97-21.8L311.97-21.8Q309.97-21.8 308.32-20.85 306.67-19.9 305.59-18.23 304.52-16.55 304.32-14.45L304.32-14.45ZM340.42 0.35L340.42 0.35Q336.92 0.35 334.19-1.35 331.47-3.05 329.92-6 328.37-8.95 328.37-12.75L328.37-12.75Q328.37-16.4 329.92-19.25 331.47-22.1 334.17-23.73 336.87-25.35 340.32-25.35L340.32-25.35Q343.72-25.35 346.39-23.85 349.07-22.35 350.57-19.7 352.07-17.05 351.97-13.65L351.97-13.65Q351.97-13.1 351.92-12.5 351.87-11.9 351.82-11.2L351.82-11.2 332.47-11.2Q332.57-8.85 333.62-7.05 334.67-5.25 336.39-4.23 338.12-3.2 340.32-3.2L340.32-3.2Q343.22-3.2 345.24-4.3 347.27-5.4 348.17-7.45L348.17-7.45 351.42-6.15Q349.92-3 347.07-1.33 344.22 0.35 340.42 0.35ZM332.52-14.45L347.87-14.45Q347.92-16.6 346.94-18.25 345.97-19.9 344.22-20.85 342.47-21.8 340.17-21.8L340.17-21.8Q338.17-21.8 336.52-20.85 334.87-19.9 333.79-18.23 332.72-16.55 332.52-14.45L332.52-14.45ZM358.11 0L358.11-36 361.86-36 361.86 0 358.11 0ZM388.61 0L385.16 0 384.86-4.5Q383.81-2.2 381.76-0.93 379.71 0.35 376.56 0.35L376.56 0.35Q373.86 0.35 371.96-0.5 370.06-1.35 369.04-2.93 368.01-4.5 368.01-6.65L368.01-6.65Q368.01-9.8 370.36-11.83 372.71-13.85 377.16-14.3L377.16-14.3 384.86-15.15 384.86-17.15Q384.86-19.25 383.31-20.53 381.76-21.8 379.11-21.8L379.11-21.8Q376.51-21.8 374.79-20.6 373.06-19.4 372.41-17.15L372.41-17.15 369.01-18.35Q370.01-21.65 372.69-23.5 375.36-25.35 379.21-25.35L379.21-25.35Q383.66-25.35 386.14-23.08 388.61-20.8 388.61-16.9L388.61-16.9 388.61 0ZM384.86-11.15L384.86-11.95 377.11-11.05Q374.61-10.75 373.31-9.68 372.01-8.6 372.01-6.85L372.01-6.85Q372.01-5.1 373.29-4.05 374.56-3 376.96-3L376.96-3Q379.71-3 381.46-4.1 383.21-5.2 384.04-7.08 384.86-8.95 384.86-11.15L384.86-11.15ZM395.91 0L395.91-25 399.36-25 399.56-21.45Q400.76-23.3 402.71-24.33 404.66-25.35 407.26-25.35L407.26-25.35Q410.11-25.35 412.26-24.13 414.41-22.9 415.61-20.48 416.81-18.05 416.81-14.4L416.81-14.4 416.81 0 413.06 0 413.06-13.95Q413.06-17.85 411.38-19.88 409.71-21.9 406.56-21.9L406.56-21.9Q403.31-21.9 401.48-19.75 399.66-17.6 399.66-13.4L399.66-13.4 399.66 0 395.91 0ZM434.7 0.35L434.7 0.35Q431.06 0.35 428.31-1.25 425.56-2.85 424.03-5.73 422.5-8.6 422.5-12.4L422.5-12.4Q422.5-16.25 424.03-19.18 425.56-22.1 428.31-23.73 431.06-25.35 434.7-25.35L434.7-25.35Q438.56-25.35 441.45-23.58 444.35-21.8 445.65-18.65L445.65-18.65 442.2-17.45Q441.45-19.45 439.48-20.63 437.5-21.8 434.9-21.8L434.9-21.8Q432.35-21.8 430.48-20.65 428.6-19.5 427.58-17.4 426.56-15.3 426.56-12.45L426.56-12.45Q426.56-8.25 428.81-5.73 431.06-3.2 434.81-3.2L434.81-3.2Q437.35-3.2 439.35-4.35 441.35-5.5 442.31-7.45L442.31-7.45 445.7-6.25Q444.35-3.15 441.45-1.4 438.56 0.35 434.7 0.35ZM462.35 0.35L462.35 0.35Q458.85 0.35 456.13-1.35 453.4-3.05 451.85-6 450.3-8.95 450.3-12.75L450.3-12.75Q450.3-16.4 451.85-19.25 453.4-22.1 456.1-23.73 458.8-25.35 462.25-25.35L462.25-25.35Q465.65-25.35 468.33-23.85 471-22.35 472.5-19.7 474-17.05 473.9-13.65L473.9-13.65Q473.9-13.1 473.85-12.5 473.8-11.9 473.75-11.2L473.75-11.2 454.4-11.2Q454.5-8.85 455.55-7.05 456.6-5.25 458.33-4.23 460.05-3.2 462.25-3.2L462.25-3.2Q465.15-3.2 467.18-4.3 469.2-5.4 470.1-7.45L470.1-7.45 473.35-6.15Q471.85-3 469-1.33 466.15 0.35 462.35 0.35ZM454.45-14.45L469.8-14.45Q469.85-16.6 468.88-18.25 467.9-19.9 466.15-20.85 464.4-21.8 462.1-21.8L462.1-21.8Q460.1-21.8 458.45-20.85 456.8-19.9 455.73-18.23 454.65-16.55 454.45-14.45L454.45-14.45ZM480.05 0L480.05-25 483.5-25 483.7-21.35Q484.7-22.7 486.13-23.65 487.55-24.6 489.27-24.98 491-25.35 492.95-25L492.95-25 492.95-21.25Q490.85-21.65 489.18-21.25 487.5-20.85 486.3-19.75 485.1-18.65 484.45-16.98 483.8-15.3 483.8-13.1L483.8-13.1 483.8 0 480.05 0ZM496.5-6.45L500.1-7.65Q500.4-6.15 501.2-5.18 502-4.2 503.27-3.7 504.55-3.2 506.25-3.2L506.25-3.2Q508.9-3.2 510.27-4.23 511.65-5.25 511.65-6.8L511.65-6.8Q511.65-8.1 510.82-8.9 510-9.7 508.65-10.23 507.3-10.75 505.65-11.15L505.65-11.15Q504.35-11.45 502.85-11.88 501.35-12.3 500-13.05 498.65-13.8 497.8-15 496.95-16.2 496.95-18.15L496.95-18.15Q496.95-20.3 498.12-21.93 499.3-23.55 501.37-24.45 503.45-25.35 506.15-25.35L506.15-25.35Q509.25-25.35 511.67-24 514.1-22.65 515.05-19.8L515.05-19.8 511.55-18.6Q511.2-19.9 510.27-20.6 509.35-21.3 508.22-21.55 507.1-21.8 506-21.8L506-21.8Q503.75-21.8 502.37-20.93 501-20.05 501-18.3L501-18.3Q501-17.35 501.45-16.73 501.9-16.1 502.7-15.7 503.5-15.3 504.6-15.03 505.7-14.75 507-14.4L507-14.4Q508.45-14.05 509.95-13.53 511.45-13 512.75-12.18 514.05-11.35 514.87-10.08 515.7-8.8 515.7-6.9L515.7-6.9Q515.7-4.7 514.5-3.08 513.3-1.45 511.17-0.55 509.05 0.35 506.25 0.35L506.25 0.35Q502.4 0.35 499.87-1.38 497.35-3.1 496.5-6.45L496.5-6.45Z" opacity="1" transform="matrix(1,0,0,1,0,0)" fill="#dedad7" class="slogan-text-1" data-fill-palette-color="secondary" id="text-1"></path></svg></g></svg></g></svg></g></svg></g><g transform="matrix(1,0,0,1,143.561746774011,0)"><svg viewBox="0 0 108.39650645197801 108.39636869704088" height="108.39636869704088" width="108.39650645197801"><g><svg xmlns="http://www.w3.org/2000/svg" data-name="Layer 1" viewBox="-0.0012328557096182434 0 128.00246571141923 128.0023030403868" x="0" y="0" id="icon-0" width="108.39650645197801" height="108.39636869704088" class="icon-icon-0" data-fill-palette-color="accent"><path d="M111 77A8 8 0 1 0 103 69 8.01 8.01 0 0 0 111 77M111 65A4 4 0 1 1 107 69 4.004 4.004 0 0 1 111 65" fill="#b4bfc5" data-fill-palette-color="accent"></path><path d="M17 77A8 8 0 1 0 9 69 8.01 8.01 0 0 0 17 77M17 65A4 4 0 1 1 13 69 4.004 4.004 0 0 1 17 65" fill="#b4bfc5" data-fill-palette-color="accent"></path><path d="M64 24A12 12 0 1 0 52 12 12.013 12.013 0 0 0 64 24M64 4A8 8 0 1 1 56 12 8.01 8.01 0 0 1 64 4" fill="#b4bfc5" data-fill-palette-color="accent"></path><path d="M120.389 76.452A12.05 12.05 0 0 1 115.78 80H117.605A6.847 6.847 0 0 1 124 86.573V103.722A1.93 1.93 0 0 1 122.217 105.764H119.647L120.102 92.067A2 2 0 0 0 116.105 91.933L115.105 121.957A2 2 0 0 1 113.156 124H112V102A2 2 0 0 0 108 102V124H107.263A2.283 2.283 0 0 1 104.999 121.898L103.999 87.94A2 2 0 0 0 103.344 86.519L89.954 74.37A6.12 6.12 0 0 0 93.363 71.3L99.557 76.707A1.99 1.99 0 0 0 101.96 76.868 11.96 11.96 0 0 1 99.192 71.078L93.652 66.241 87.363 32.696C86.094 26.443 82.16 23 76.286 23H75.59A16 16 0 0 1 69.515 27H76.286C80.27 27 82.545 29.063 83.438 33.462 83.438 33.462 89.92 68.04 89.932 68.085A2.13 2.13 0 0 1 88.448 70.662L87.515 70.922A2.055 2.055 0 0 1 84.986 69.543S78.997 46.616 78.916 46.46A2.2 2.2 0 0 0 76.808 44.996 2.08 2.08 0 0 0 75 46.946L73 122A2.19 2.19 0 0 1 70.666 124H66V82A2 2 0 0 0 62 82V124H57.333A2.194 2.194 0 0 1 54.999 121.947L53 46.947A1.996 1.996 0 0 0 50.947 45 2.3 2.3 0 0 0 48.9 46.656S42.855 69.504 42.853 69.512A1.994 1.994 0 0 1 40.42 70.925L39.504 70.665A2.137 2.137 0 0 1 38.067 68.075C38.08 68.031 44.415 33.485 44.415 33.485 45.296 29.06 47.516 27 51.4 27H58.485A16 16 0 0 1 52.411 23H51.4C45.613 23 41.739 26.446 40.486 32.733L34.34 66.248 28.806 71.079A11.95 11.95 0 0 1 26.038 76.87 1.996 1.996 0 0 0 28.442 76.706L34.632 71.304A6.07 6.07 0 0 0 38.033 74.384L24.656 86.518A2 2 0 0 0 24 87.94L23 121.957A2.277 2.277 0 0 1 20.736 124H19.999V102A2 2 0 1 0 16 102V124H14.843A2.02 2.02 0 0 1 12.894 121.89L11.894 91.933A2 2 0 1 0 7.896 92.067L8.354 105.764H5.784A1.93 1.93 0 0 1 4 103.722V86.572A6.846 6.846 0 0 1 10.388 80H12.218A12.06 12.06 0 0 1 7.61 76.451 11.06 11.06 0 0 0 0 86.573V103.722A5.924 5.924 0 0 0 5.783 109.764H8.487L8.895 121.957A6.003 6.003 0 0 0 14.843 128H20.737A6.227 6.227 0 0 0 26.998 122.016L27.974 88.91S44.689 73.69 44.77 73.595A6.04 6.04 0 0 0 46.714 70.558L49.361 60.555 51 122A6.18 6.18 0 0 0 57.333 128H70.666A6.17 6.17 0 0 0 76.999 122.053L78.628 60.981 81.126 70.589A6.02 6.02 0 0 0 83.482 73.898C83.506 73.922 100.026 88.91 100.026 88.91L101 121.957A6.24 6.24 0 0 0 107.263 128H113.157A5.986 5.986 0 0 0 119.103 122.024L119.513 109.764H122.217A5.924 5.924 0 0 0 128 103.722V86.572A11.055 11.055 0 0 0 120.389 76.453" fill="#b4bfc5" data-fill-palette-color="accent"></path></svg></g></svg></g><g></g></svg></g><defs></defs></svg><rect width="395.52" height="221.03309646485272" fill="none" stroke="none" visibility="hidden"></rect></g></svg></g></svg>